<svg class="diagram-root" style="background: #f5f6f6" xmlns="http://www.w3.org/2000/svg" xmlns:xlink="http://www.w3.org/1999/xlink"><style>.diagram-root { font-family: "Helvetica Neue", sans-serif; font-size: 12px; } .t { overflow: visible; } .t-bg { y: 40; fill: #fff;   } .th { fill: #005aa0;   } .tht { fill: #fff; font-size: 14px;  } .tf { fill: #323c46; overflow: visible; } .tf.pk { fill: #005aa0; font-weight: bold; } .tf.fk { font-weight: bold; } .ty { fill: #adb1b5; font-weight: normal; text-anchor: end; } .r { fill: transparent; stroke: #c3c3c3; stroke-width: 1; } .l { stroke: 1; } .i { fill: #c2c7ce; stroke: #c2c7ce; } .i.ix { fill: #afb3b6; stroke: #000; } .fa { fill: transparent; overflow: visible; } .fa .bg.hover { fill: #f7f7f7; } .c { cy: 12; r: 4; stroke: #d2d2dc; fill: #d2d2dc; } .hr { fill: transparent; stroke: #323c46; stroke-opacity: 0.035; stroke-width: 13; } .dc { stroke: #fa5a3c; fill: #fa5a3c; } .x { stroke: white; stroke-width: 1; } .hl .th { fill: #1b9bff; } .hl .tht {  } .fhl .bg { fill: #e7f4ff; } .fhls .bg {  } .r.hl { stroke: #1b9bff; } .dim { opacity: 0.25; }</style><g class="drawing-wrapper" transform="translate(-133.29666666666662, -21.385555555555612) scale(1,1)"><g class="rs"><path d="M 734.21 354.56 m -1, 0 a 1,1 0 1,0 2,0 a 1,1 0 1,0 -2,0 M 734.21 354.56 m -0.5, 0 a 0.5,0.5 0 1,0 1,0 a 0.5,0.5 0 1,0 -1,0  M734.21 354.56 L734.21 354.56 722.21 354.56 M 734.21 360.56 m -1, 0 a 1,1 0 1,0 2,0 a 1,1 0 1,0 -2,0 M 734.21 360.56 m -0.5, 0 a 0.5,0.5 0 1,0 1,0 a 0.5,0.5 0 1,0 -1,0  M734.21 360.56 L734.21 360.56 727.21 354.56 734.21 348.56 M 734.21 348.56 m -1, 0 a 1,1 0 1,0 2,0 a 1,1 0 1,0 -2,0 M 734.21 348.56 m -0.5, 0 a 0.5,0.5 0 1,0 1,0 a 0.5,0.5 0 1,0 -1,0  M722.21 354.56 Q 703.85 354.56, 685.48 355.02 T 648.75 355.47 M 636.75 355.47 m -1, 0 a 1,1 0 1,0 2,0 a 1,1 0 1,0 -2,0 M 636.75 355.47 m -0.5, 0 a 0.5,0.5 0 1,0 1,0 a 0.5,0.5 0 1,0 -1,0  M636.75 355.47 L636.75 355.47 648.75 355.47 M 636.75 361.47 m -1, 0 a 1,1 0 1,0 2,0 a 1,1 0 1,0 -2,0 M 636.75 361.47 m -0.5, 0 a 0.5,0.5 0 1,0 1,0 a 0.5,0.5 0 1,0 -1,0  M636.75 361.47 L636.75 361.47 643.75 355.47 636.75 349.47 M 636.75 349.47 m -1, 0 a 1,1 0 1,0 2,0 a 1,1 0 1,0 -2,0 M 636.75 349.47 m -0.5, 0 a 0.5,0.5 0 1,0 1,0 a 0.5,0.5 0 1,0 -1,0 " id="h1736270986" class="r"></path><path d="M 860.27 379.56 m -1, 0 a 1,1 0 1,0 2,0 a 1,1 0 1,0 -2,0 M 860.27 379.56 m -0.5, 0 a 0.5,0.5 0 1,0 1,0 a 0.5,0.5 0 1,0 -1,0  M860.27 379.56 L860.27 379.56 872.27 379.56 M 860.27 385.56 m -1, 0 a 1,1 0 1,0 2,0 a 1,1 0 1,0 -2,0 M 860.27 385.56 m -0.5, 0 a 0.5,0.5 0 1,0 1,0 a 0.5,0.5 0 1,0 -1,0  M860.27 385.56 L860.27 385.56 867.27 379.56 860.27 373.56 M 860.27 373.56 m -1, 0 a 1,1 0 1,0 2,0 a 1,1 0 1,0 -2,0 M 860.27 373.56 m -0.5, 0 a 0.5,0.5 0 1,0 1,0 a 0.5,0.5 0 1,0 -1,0  M872.27 379.56 C 922.27 379.56, 927.55 180.95999999999998, 863.47 180.95999999999998 M 851.47 180.95999999999998 m -1, 0 a 1,1 0 1,0 2,0 a 1,1 0 1,0 -2,0 M 851.47 180.95999999999998 m -0.5, 0 a 0.5,0.5 0 1,0 1,0 a 0.5,0.5 0 1,0 -1,0  M851.47 180.95999999999998 L851.47 180.95999999999998 863.47 180.95999999999998 M 851.47 186.95999999999998 m -1, 0 a 1,1 0 1,0 2,0 a 1,1 0 1,0 -2,0 M 851.47 186.95999999999998 m -0.5, 0 a 0.5,0.5 0 1,0 1,0 a 0.5,0.5 0 1,0 -1,0  M851.47 186.95999999999998 L851.47 186.95999999999998 858.47 180.95999999999998 851.47 174.95999999999998 M 851.47 174.95999999999998 m -1, 0 a 1,1 0 1,0 2,0 a 1,1 0 1,0 -2,0 M 851.47 174.95999999999998 m -0.5, 0 a 0.5,0.5 0 1,0 1,0 a 0.5,0.5 0 1,0 -1,0 " id="h3801052274" class="r"></path><path d="M 321.36 405.06 m -1, 0 a 1,1 0 1,0 2,0 a 1,1 0 1,0 -2,0 M 321.36 405.06 m -0.5, 0 a 0.5,0.5 0 1,0 1,0 a 0.5,0.5 0 1,0 -1,0  M321.36 405.06 L321.36 405.06 333.36 405.06 M 321.36 411.06 m -1, 0 a 1,1 0 1,0 2,0 a 1,1 0 1,0 -2,0 M 321.36 411.06 m -0.5, 0 a 0.5,0.5 0 1,0 1,0 a 0.5,0.5 0 1,0 -1,0  M321.36 411.06 L321.36 411.06 328.36 405.06 321.36 399.06 M 321.36 399.06 m -1, 0 a 1,1 0 1,0 2,0 a 1,1 0 1,0 -2,0 M 321.36 399.06 m -0.5, 0 a 0.5,0.5 0 1,0 1,0 a 0.5,0.5 0 1,0 -1,0  M333.36 405.06 Q 363.7 405.06, 394.03 380.27 T 454.7 355.47 M 466.7 355.47 m -1, 0 a 1,1 0 1,0 2,0 a 1,1 0 1,0 -2,0 M 466.7 355.47 m -0.5, 0 a 0.5,0.5 0 1,0 1,0 a 0.5,0.5 0 1,0 -1,0  M466.7 355.47 L466.7 355.47 454.7 355.47 M 466.7 361.47 m -1, 0 a 1,1 0 1,0 2,0 a 1,1 0 1,0 -2,0 M 466.7 361.47 m -0.5, 0 a 0.5,0.5 0 1,0 1,0 a 0.5,0.5 0 1,0 -1,0  M466.7 361.47 L466.7 361.47 459.7 355.47 466.7 349.47 M 466.7 349.47 m -1, 0 a 1,1 0 1,0 2,0 a 1,1 0 1,0 -2,0 M 466.7 349.47 m -0.5, 0 a 0.5,0.5 0 1,0 1,0 a 0.5,0.5 0 1,0 -1,0 " id="h518110237" class="r"></path><path d="M 306.01 231.98 m -1, 0 a 1,1 0 1,0 2,0 a 1,1 0 1,0 -2,0 M 306.01 231.98 m -0.5, 0 a 0.5,0.5 0 1,0 1,0 a 0.5,0.5 0 1,0 -1,0  M306.01 231.98 L306.01 231.98 318.01 231.98 M312.01 237.98 L312.01 237.98 312.01 225.98 M318.01 231.98 Q 352.19 231.98, 386.36 293.73 T 454.7 355.47 M 466.7 355.47 m -1, 0 a 1,1 0 1,0 2,0 a 1,1 0 1,0 -2,0 M 466.7 355.47 m -0.5, 0 a 0.5,0.5 0 1,0 1,0 a 0.5,0.5 0 1,0 -1,0  M466.7 355.47 L466.7 355.47 454.7 355.47 M 466.7 361.47 m -1, 0 a 1,1 0 1,0 2,0 a 1,1 0 1,0 -2,0 M 466.7 361.47 m -0.5, 0 a 0.5,0.5 0 1,0 1,0 a 0.5,0.5 0 1,0 -1,0  M466.7 361.47 L466.7 361.47 459.7 355.47 466.7 349.47 M 466.7 349.47 m -1, 0 a 1,1 0 1,0 2,0 a 1,1 0 1,0 -2,0 M 466.7 349.47 m -0.5, 0 a 0.5,0.5 0 1,0 1,0 a 0.5,0.5 0 1,0 -1,0 " id="h221257298" class="r"></path><path d="M 591.47 108.39 m -1, 0 a 1,1 0 1,0 2,0 a 1,1 0 1,0 -2,0 M 591.47 108.39 m -0.5, 0 a 0.5,0.5 0 1,0 1,0 a 0.5,0.5 0 1,0 -1,0  M591.47 108.39 L591.47 108.39 603.47 108.39 M 591.47 114.39 m -1, 0 a 1,1 0 1,0 2,0 a 1,1 0 1,0 -2,0 M 591.47 114.39 m -0.5, 0 a 0.5,0.5 0 1,0 1,0 a 0.5,0.5 0 1,0 -1,0  M591.47 114.39 L591.47 114.39 598.47 108.39 591.47 102.39 M 591.47 102.39 m -1, 0 a 1,1 0 1,0 2,0 a 1,1 0 1,0 -2,0 M 591.47 102.39 m -0.5, 0 a 0.5,0.5 0 1,0 1,0 a 0.5,0.5 0 1,0 -1,0  M603.47 108.39 Q 618.95 108.39, 634.43 144.67 T 665.4 180.95999999999998 M 677.4 180.95999999999998 m -1, 0 a 1,1 0 1,0 2,0 a 1,1 0 1,0 -2,0 M 677.4 180.95999999999998 m -0.5, 0 a 0.5,0.5 0 1,0 1,0 a 0.5,0.5 0 1,0 -1,0  M677.4 180.95999999999998 L677.4 180.95999999999998 665.4 180.95999999999998 M 677.4 186.95999999999998 m -1, 0 a 1,1 0 1,0 2,0 a 1,1 0 1,0 -2,0 M 677.4 186.95999999999998 m -0.5, 0 a 0.5,0.5 0 1,0 1,0 a 0.5,0.5 0 1,0 -1,0  M677.4 186.95999999999998 L677.4 186.95999999999998 670.4 180.95999999999998 677.4 174.95999999999998 M 677.4 174.95999999999998 m -1, 0 a 1,1 0 1,0 2,0 a 1,1 0 1,0 -2,0 M 677.4 174.95999999999998 m -0.5, 0 a 0.5,0.5 0 1,0 1,0 a 0.5,0.5 0 1,0 -1,0 " id="h300167761" class="r"></path><path d="M 465.41 133.39 m -1, 0 a 1,1 0 1,0 2,0 a 1,1 0 1,0 -2,0 M 465.41 133.39 m -0.5, 0 a 0.5,0.5 0 1,0 1,0 a 0.5,0.5 0 1,0 -1,0  M465.41 133.39 L465.41 133.39 453.41 133.39 M 465.41 139.39 m -1, 0 a 1,1 0 1,0 2,0 a 1,1 0 1,0 -2,0 M 465.41 139.39 m -0.5, 0 a 0.5,0.5 0 1,0 1,0 a 0.5,0.5 0 1,0 -1,0  M465.41 139.39 L465.41 139.39 458.41 133.39 465.41 127.38999999999999 M 465.41 127.38999999999999 m -1, 0 a 1,1 0 1,0 2,0 a 1,1 0 1,0 -2,0 M 465.41 127.38999999999999 m -0.5, 0 a 0.5,0.5 0 1,0 1,0 a 0.5,0.5 0 1,0 -1,0  M453.41 133.39 C 403.41 133.39, 402.636 355.47, 454.7 355.47 M 466.7 355.47 m -1, 0 a 1,1 0 1,0 2,0 a 1,1 0 1,0 -2,0 M 466.7 355.47 m -0.5, 0 a 0.5,0.5 0 1,0 1,0 a 0.5,0.5 0 1,0 -1,0  M466.7 355.47 L466.7 355.47 454.7 355.47 M 466.7 361.47 m -1, 0 a 1,1 0 1,0 2,0 a 1,1 0 1,0 -2,0 M 466.7 361.47 m -0.5, 0 a 0.5,0.5 0 1,0 1,0 a 0.5,0.5 0 1,0 -1,0  M466.7 361.47 L466.7 361.47 459.7 355.47 466.7 349.47 M 466.7 349.47 m -1, 0 a 1,1 0 1,0 2,0 a 1,1 0 1,0 -2,0 M 466.7 349.47 m -0.5, 0 a 0.5,0.5 0 1,0 1,0 a 0.5,0.5 0 1,0 -1,0 " id="h1499507187" class="r"></path></g><g class="hrs"></g><g class="ts"><svg width="174.07" height="100" x="677.4" y="123.96" id="h2876837712" class="t"><rect height="40" width="174.07" class="th"></rect><text x="13" y="25" class="tht">Department</text><rect height="60" width="174.07" class="t-bg"></rect><text x="13" y="61" class="tf pk">dept_no<tspan x="161.07" class="ty">integer</tspan></text><path d="M7,14A2,2 0 0,1 5,12A2,2 0 0,1 7,10A2,2 0 0,1 9,12A2,2 0 0,1 7,14M12.65,10C11.83,7.67 9.61,6 7, 6A6, 6 0 0, 0 1, 12A6, 6 0 0, 0 7, 18C9.61, 18 11.83, 16.33 12.65, 14H17V18H21V14H23V10H12.65Z" class="i pk" transform="translate(104.37859375, 48) scale(0.65)"></path><text x="13" y="86" class="tf">dept_name<tspan x="161.07" class="ty">varchar(255)</tspan></text></svg><svg width="170.05" height="200" x="466.7" y="298.47" id="h3299212598" class="t"><rect height="40" width="170.05" class="th"></rect><text x="13" y="25" class="tht">Employees</text><rect height="160" width="170.05" class="t-bg"></rect><text x="13" y="61" class="tf pk">emp_no<tspan x="157.05" class="ty">integer</tspan></text><path d="M7,14A2,2 0 0,1 5,12A2,2 0 0,1 7,10A2,2 0 0,1 9,12A2,2 0 0,1 7,14M12.65,10C11.83,7.67 9.61,6 7, 6A6, 6 0 0, 0 1, 12A6, 6 0 0, 0 7, 18C9.61, 18 11.83, 16.33 12.65, 14H17V18H21V14H23V10H12.65Z" class="i pk" transform="translate(100.35859375000001, 48) scale(0.65)"></path><text x="13" y="86" class="tf">birth_date<tspan x="157.05" class="ty">date</tspan></text><text x="13" y="111" class="tf">first_name<tspan x="157.05" class="ty">varchar(255)</tspan></text><text x="13" y="136" class="tf">last_name<tspan x="157.05" class="ty">varchar(255)</tspan></text><text x="13" y="161" class="tf">gender<tspan x="157.05" class="ty">char(1)</tspan></text><text x="13" y="186" class="tf">hire_date<tspan x="157.05" class="ty">date</tspan></text></svg><svg width="126.06" height="150" x="734.21" y="297.56" id="h4086156755" class="t"><rect height="40" width="126.06" class="th"></rect><text x="13" y="25" class="tht">Dept_emp</text><rect height="110" width="126.06" class="t-bg"></rect><text x="13" y="61" class="tf fk">emp_no<tspan x="113.06" class="ty">integer</tspan></text><text x="13" y="86" class="tf fk">dept_no<tspan x="113.06" class="ty">intefer</tspan></text><text x="13" y="111" class="tf">from_date<tspan x="113.06" class="ty">date</tspan></text><text x="13" y="136" class="tf">to_date<tspan x="113.06" class="ty">date</tspan></text></svg><svg width="132.7" height="150" x="188.66" y="348.06" id="h1984824179" class="t"><rect height="40" width="132.7" class="th"></rect><text x="13" y="25" class="tht">Title</text><rect height="110" width="132.7" class="t-bg"></rect><text x="13" y="61" class="tf fk">emp_no<tspan x="119.69999999999999" class="ty">integer</tspan></text><text x="13" y="86" class="tf">title<tspan x="119.69999999999999" class="ty">varchar(255)</tspan></text><text x="13" y="111" class="tf">from_date<tspan x="119.69999999999999" class="ty">date</tspan></text><text x="13" y="136" class="tf">to_date<tspan x="119.69999999999999" class="ty">date</tspan></text></svg><svg width="150.71" height="150" x="155.3" y="174.98" id="h3858243705" class="t"><rect height="40" width="150.71" class="th"></rect><text x="13" y="25" class="tht">Salaries</text><rect height="110" width="150.71" class="t-bg"></rect><text x="13" y="61" class="tf fk">emp_no<tspan x="137.71" class="ty">integer</tspan></text><text x="13" y="86" class="tf">salary<tspan x="137.71" class="ty">decimal(13,2)</tspan></text><text x="13" y="111" class="tf">from_date<tspan x="137.71" class="ty">date</tspan></text><text x="13" y="136" class="tf">to_date<tspan x="137.71" class="ty">date</tspan></text></svg><svg width="126.06" height="150" x="465.41" y="51.39" id="h2403958395" class="t"><rect height="40" width="126.06" class="th"></rect><text x="13" y="25" class="tht">Dept_manager</text><rect height="110" width="126.06" class="t-bg"></rect><text x="13" y="61" class="tf fk">dept_no<tspan x="113.06" class="ty">intefer</tspan></text><text x="13" y="86" class="tf fk">emp_no<tspan x="113.06" class="ty">integer</tspan></text><text x="13" y="111" class="tf">from_date<tspan x="113.06" class="ty">date</tspan></text><text x="13" y="136" class="tf">to_date<tspan x="113.06" class="ty">date</tspan></text></svg></g></g><text class="qdbd-link" x="10" y="20">www.quickdatabasediagrams.com</text></svg>